<svg width="10" height="10" viewBox="0 0 10 10" fill="none" xmlns="http://www.w3.org/2000/svg">
<path d="M8.39401 0.40625H1.60594C1.39505 0.40625 1.18622 0.447778 0.991383 0.528482C0.796544 0.609187 0.619487 0.727491 0.470364 0.876614C0.321241 1.02574 0.202952 1.20276 0.122247 1.3976C0.0415425 1.59244 0 1.80127 0 2.01216V8.96545C0 9.1317 0.0660275 9.29113 0.183578 9.40868C0.301129 9.52623 0.460594 9.59227 0.626836 9.59227C0.747925 9.59103 0.866039 9.55475 0.966945 9.4878L2.29346 8.6156C2.39501 8.54841 2.51428 8.5129 2.63606 8.51357H8.39401C8.81993 8.51357 9.22842 8.34437 9.52959 8.0432C9.83076 7.74204 9.99995 7.33356 9.99995 6.90765V2.02431C10.0016 1.81239 9.96119 1.60227 9.88121 1.40603C9.80122 1.20978 9.68314 1.03131 9.53386 0.8809C9.38458 0.730488 9.20705 0.611102 9.01142 0.529639C8.81578 0.448176 8.60593 0.406244 8.39401 0.40625ZM2.44655 5.0515C2.27708 5.0515 2.11458 4.98417 1.99475 4.86434C1.87492 4.74452 1.80755 4.58199 1.80755 4.41253C1.80755 4.24307 1.87492 4.08054 1.99475 3.96071C2.11458 3.84088 2.27708 3.77357 2.44655 3.77357C2.61601 3.77357 2.77852 3.84088 2.89835 3.96071C3.01817 4.08054 3.08548 4.24307 3.08548 4.41253C3.08548 4.58157 3.01854 4.74372 2.89923 4.86348C2.77993 4.98324 2.61802 5.05085 2.44898 5.0515H2.44655ZM4.99998 5.0515C4.83051 5.0515 4.66801 4.98417 4.54818 4.86434C4.42835 4.74452 4.36098 4.58199 4.36098 4.41253C4.36098 4.24307 4.42835 4.08054 4.54818 3.96071C4.66801 3.84088 4.83051 3.77357 4.99998 3.77357C5.16944 3.77357 5.33195 3.84088 5.45178 3.96071C5.57161 4.08054 5.63891 4.24307 5.63891 4.41253C5.63892 4.49706 5.62219 4.58074 5.58962 4.65875C5.55706 4.73675 5.50933 4.80751 5.44923 4.86694C5.38912 4.92637 5.3178 4.97329 5.23943 5.00496C5.16106 5.03664 5.0772 5.05246 4.99268 5.0515H4.99998ZM7.55341 5.0515C7.38394 5.0515 7.22144 4.98417 7.10161 4.86434C6.98178 4.74452 6.91441 4.58199 6.91441 4.41253C6.91441 4.24307 6.98178 4.08054 7.10161 3.96071C7.22144 3.84088 7.38394 3.77357 7.55341 3.77357C7.72287 3.77357 7.88538 3.84088 8.00521 3.96071C8.12504 4.08054 8.19234 4.24307 8.19234 4.41253C8.19235 4.58157 8.1254 4.74372 8.0061 4.86348C7.88679 4.98324 7.72488 5.05085 7.55584 5.0515H7.55341Z" fill="#896CFE"/>
</svg>
