<svg width="7" height="8" viewBox="0 0 7 8" fill="none" xmlns="http://www.w3.org/2000/svg">
<path d="M7 4.42045C7 4.57115 6.94083 4.71567 6.83552 4.82223C6.73022 4.92878 6.5874 4.98864 6.43847 4.98864C6.40883 4.98791 6.37929 4.98507 6.35005 4.98012H6.32194C5.85611 4.89825 5.42312 4.68336 5.07396 4.36079L5.60039 3.24147C5.70227 3.4057 5.83763 3.54605 5.99741 3.65309C6.15719 3.76014 6.33773 3.83143 6.52693 3.86221C6.65933 3.8835 6.77982 3.95204 6.86664 4.05541C6.95218 4.15741 6.9994 4.28668 7 4.42045Z" fill="#232323"/>
<path d="M3.01176 5.83097C2.86332 5.94792 2.70166 6.04662 2.53022 6.125C2.16441 6.28719 1.76865 6.36856 1.36929 6.36365C1.03667 6.36461 0.705665 6.31676 0.386613 6.2216C0.246237 6.17504 0.129648 6.07437 0.0621154 5.94143C-0.0054171 5.80848 -0.0184619 5.65397 0.0258203 5.51137C0.055698 5.41884 0.108568 5.33563 0.179364 5.26971C0.25016 5.2038 0.336491 5.15739 0.430105 5.13495C0.671563 5.07671 0.904606 5.20171 1.14045 5.2287C1.39297 5.25706 1.64856 5.23289 1.89151 5.15768C2.04406 5.11244 2.18689 5.03873 2.31266 4.94035C2.34687 5.053 2.39398 5.16122 2.45304 5.26279C2.592 5.49443 2.78353 5.68921 3.01176 5.83097Z" fill="#232323"/>
<path d="M6.79784 7.78693C6.79784 7.84344 6.77564 7.89764 6.73615 7.93759C6.69666 7.97755 6.64312 8 6.58727 8H2.09503C2.03918 8 1.9856 7.97755 1.94611 7.93759C1.90662 7.89764 1.88446 7.84344 1.88446 7.78693C1.88446 7.73042 1.90662 7.67624 1.94611 7.63629C1.9856 7.59633 2.03918 7.57386 2.09503 7.57386H4.90268C4.93497 7.57386 4.9462 7.56535 4.9434 7.52842C4.93352 7.31559 4.91102 7.10357 4.87601 6.89348C4.82962 6.6461 4.74025 6.409 4.61208 6.19319C4.5411 6.07665 4.45518 5.97014 4.35657 5.87643C4.32428 5.8466 4.28919 5.81677 4.25269 5.78694C4.11788 5.68029 3.96526 5.59899 3.80207 5.54689C3.45252 5.42757 3.13807 5.31393 2.93873 4.97871C2.86548 4.85448 2.81877 4.71609 2.8016 4.57248C2.78444 4.42886 2.7972 4.28322 2.83906 4.1449C2.88679 4.0199 2.95839 3.89773 3.01595 3.77699L3.48621 2.77131C3.49884 2.74433 3.57326 2.52557 3.60414 2.51847C3.48916 2.5409 3.37606 2.57224 3.26583 2.61222C2.87951 2.75922 2.52555 2.98172 2.22417 3.26705C2.16942 3.31705 2.10547 3.35565 2.03598 3.38064C1.96648 3.40563 1.89282 3.41651 1.81917 3.41269C1.74551 3.40886 1.67331 3.3904 1.60671 3.35834C1.54011 3.32629 1.48043 3.28126 1.43102 3.22585C1.38161 3.17045 1.34344 3.10576 1.31874 3.03545C1.29405 2.96513 1.2833 2.89058 1.28708 2.81605C1.29086 2.74152 1.3091 2.66848 1.34078 2.60109C1.37246 2.5337 1.41698 2.4733 1.47174 2.42331C1.88155 2.03909 2.3618 1.73988 2.88537 1.54262C3.25704 1.40568 3.64938 1.33504 4.04493 1.33381C4.24335 1.33345 4.44131 1.35296 4.63593 1.39206C4.68784 1.39592 4.73892 1.4074 4.78756 1.42615C4.85363 1.43598 4.91826 1.45411 4.9799 1.48013C5.18596 1.56735 5.34935 1.73383 5.43412 1.94293C5.51889 2.15204 5.5181 2.38666 5.43192 2.59518L5.3898 2.69745L4.48715 4.61648C4.5405 4.64205 4.59523 4.66903 4.64717 4.69744C4.69911 4.72585 4.78755 4.7841 4.85213 4.83097C5.05619 4.97741 5.23866 5.15246 5.39402 5.35087C5.70811 5.76968 5.915 6.26056 5.99626 6.77983C6.05181 7.04352 6.06414 7.31466 6.03276 7.58239C6.21667 7.58239 6.40056 7.58239 6.58446 7.58239C6.63936 7.58161 6.69238 7.60255 6.73224 7.64076C6.7721 7.67897 6.79565 7.73142 6.79784 7.78693Z" fill="#232323"/>
<path d="M1.07306 7.57386H0.56626C0.510412 7.57386 0.456868 7.59632 0.417377 7.63628C0.377887 7.67624 0.355686 7.73042 0.355686 7.78693C0.355686 7.84344 0.377887 7.89763 0.417377 7.93759C0.456868 7.97755 0.510412 7.99999 0.56626 7.99999H1.07306C1.1289 7.99999 1.18245 7.97755 1.22194 7.93759C1.26143 7.89763 1.28363 7.84344 1.28363 7.78693C1.28363 7.73042 1.26143 7.67624 1.22194 7.63628C1.18245 7.59632 1.1289 7.57386 1.07306 7.57386Z" fill="#232323"/>
<path d="M5.49089 1.35511C5.86072 1.35511 6.16052 1.05176 6.16052 0.677557C6.16052 0.303353 5.86072 0 5.49089 0C5.12107 0 4.82127 0.303353 4.82127 0.677557C4.82127 1.05176 5.12107 1.35511 5.49089 1.35511Z" fill="#232323"/>
</svg>
