<svg width="40" height="40" viewBox="0 0 40 40" fill="none" xmlns="http://www.w3.org/2000/svg">
<circle cx="20" cy="20" r="19" fill="#896CFE" stroke="#896CFE" stroke-width="2"/>
<path d="M19.9314 7.02218C16.8032 7.00352 13.7755 8.09846 11.4156 10.1018C9.05578 12.1051 7.52589 14.8792 7.11266 17.9042C6.69944 20.9292 7.43126 23.9974 9.17099 26.5337C10.9107 29.0699 13.5389 30.9002 16.563 31.6813C16.5308 29.5602 16.5254 26.5614 16.5308 25.015H13.4568C13.2836 25.015 13.1173 24.9478 12.9948 24.8283C12.8722 24.7088 12.8035 24.5467 12.8035 24.3776V21.0392C12.8049 20.8711 12.8744 20.7103 12.9967 20.5919C13.1191 20.4735 13.2845 20.4071 13.4568 20.4071H16.563C16.6004 17.6538 16.6486 16.9851 16.6486 16.9851C16.6486 16.3813 16.7705 15.7835 17.0074 15.2257C17.2442 14.6679 17.5913 14.1611 18.0289 13.7342C18.4665 13.3073 18.986 12.9686 19.5578 12.7376C20.1296 12.5066 20.7424 12.3876 21.3613 12.3876H24.3068C24.4432 12.3876 24.5783 12.4139 24.7044 12.4648C24.8304 12.5157 24.9449 12.5904 25.0414 12.6845C25.1379 12.7786 25.2143 12.8903 25.2666 13.0133C25.3188 13.1363 25.3457 13.2681 25.3457 13.4012V16.9851H22.984C22.6095 16.9865 22.2506 17.1322 21.9858 17.3906C21.7209 17.6489 21.5715 17.999 21.5701 18.3643C21.5701 19.2055 21.5701 19.0487 21.5701 20.4071H24.7833C24.86 20.4071 24.9359 20.4218 25.0068 20.4504C25.0776 20.479 25.1419 20.521 25.1961 20.5739C25.2503 20.6267 25.2933 20.6895 25.3226 20.7586C25.352 20.8277 25.3671 20.9017 25.3671 20.9765V24.4246C25.3671 24.4994 25.352 24.5735 25.3226 24.6426C25.2933 24.7116 25.2503 24.7744 25.1961 24.8273C25.1419 24.8802 25.0776 24.9221 25.0068 24.9507C24.9359 24.9794 24.86 24.9941 24.7833 24.9941H21.5701C21.5701 26.5614 21.5701 29.8005 21.5701 32C24.8511 31.6434 27.8657 30.0689 29.989 27.6028C32.1122 25.1368 33.1814 21.9682 32.9748 18.754C32.7682 15.5397 31.3017 12.5263 28.8793 10.3382C26.457 8.15014 23.2645 6.95528 19.9635 7.00128L19.9314 7.02218Z" fill="white"/>
</svg>
