<svg width="40" height="40" viewBox="0 0 40 40" fill="none" xmlns="http://www.w3.org/2000/svg">
<circle cx="20" cy="20" r="19" fill="#896CFE" stroke="#896CFE" stroke-width="2"/>
<path d="M21.7059 31.9751H21.8192L22.1823 31.944H22.3788L22.6944 31.9129L23.1052 31.8631H23.2064C24.6265 31.7002 26.0154 31.3162 27.3268 30.7239C28.5346 30.1913 29.5847 29.3318 30.3693 28.234C30.9125 27.4228 31.2896 26.5031 31.4769 25.5324V25.4951C31.8591 23.765 32.0331 21.9917 31.9948 20.2164V19.2578C32.0123 17.6058 31.8566 15.9568 31.5304 14.3402C31.509 14.2962 31.4911 14.2504 31.4769 14.2033C31.2513 13.1299 30.874 12.0977 30.3574 11.1407C29.8685 10.2489 29.1902 9.48646 28.3748 8.91219C27.2524 8.16775 26.0061 7.65042 24.7009 7.38712C23.3592 7.11568 21.9948 6.98638 20.6283 7.00118H19.3779C18.0094 6.98609 16.6428 7.11539 15.2992 7.38712C13.9943 7.65155 12.7484 8.1688 11.6255 8.91219C10.8104 9.48496 10.1336 10.2478 9.64862 11.1407C9.13005 12.0974 8.75084 13.1296 8.52334 14.2033C8.50909 14.2504 8.49112 14.2962 8.4697 14.3402C8.14349 15.9568 7.98773 17.6058 8.00525 19.2578C8.00525 19.4072 8.00525 19.5628 8.00525 19.7122C8.00525 19.8741 8.00525 20.0297 8.00525 20.1916C7.96667 21.9668 8.14077 23.7401 8.52334 25.4702V25.5075C8.69604 26.4375 9.04934 27.3206 9.5614 28.1022C10.0735 28.8837 10.7334 29.5472 11.5004 30.0516C13.1158 31.0545 14.9234 31.671 16.7937 31.8568H16.895L17.3118 31.9066L17.6274 31.9378H17.8239L18.1811 31.9689H18.2942L18.973 32H21.0093L21.7059 31.9751ZM25.6656 11.7383C25.7708 11.5061 25.9369 11.31 26.1445 11.1726C26.3522 11.0353 26.5928 10.9624 26.8385 10.9624C27.0842 10.9624 27.3249 11.0353 27.5325 11.1726C27.7401 11.31 27.9063 11.5061 28.0115 11.7383C28.1308 12.0693 28.1308 12.4343 28.0115 12.7654C27.9063 12.9975 27.7401 13.1936 27.5325 13.331C27.3249 13.4683 27.0842 13.5412 26.8385 13.5412C26.5928 13.5412 26.3522 13.4683 26.1445 13.331C25.9369 13.1936 25.7708 12.9975 25.6656 12.7654C25.5507 12.4399 25.5507 12.0824 25.6656 11.7569V11.7383ZM20.1996 25.7441H19.8244C19.2207 25.7438 18.6198 25.6579 18.0382 25.4889C17.1177 25.2308 16.2755 24.7316 15.5911 24.0385C15.019 23.4462 14.5779 22.7302 14.2989 21.9407C13.735 20.3567 13.735 18.6134 14.2989 17.0293C14.5779 16.2399 15.019 15.5238 15.5911 14.9316C16.0657 14.4444 16.6229 14.0539 17.2343 13.78C18.0458 13.4183 18.9184 13.2299 19.8006 13.226H20.1758C20.7795 13.2263 21.3804 13.3121 21.9621 13.4812C22.8825 13.7392 23.7247 14.2384 24.4092 14.9316C24.9812 15.5238 25.4223 16.2399 25.7013 17.0293C26.2728 18.612 26.2728 20.3581 25.7013 21.9407C25.4223 22.7302 24.9812 23.4462 24.4092 24.0385C23.9345 24.5256 23.3772 24.9162 22.7658 25.1901C21.9547 25.5539 21.0822 25.7444 20.1996 25.7503V25.7441Z" fill="white"/>
<path d="M21.4797 23.7086C22.1104 23.5358 22.6885 23.1972 23.1588 22.725C23.5452 22.3224 23.8419 21.8357 24.0281 21.2996C24.2369 20.7271 24.3438 20.1195 24.3437 19.5068C24.3429 18.8928 24.2381 18.2837 24.0341 17.7079C23.8438 17.1724 23.5452 16.6862 23.1588 16.2824C22.8387 15.9554 22.4631 15.6936 22.0513 15.5105C21.4643 15.2544 20.8356 15.1191 20.1996 15.1121H19.8244C19.3917 15.1161 18.9615 15.1789 18.5443 15.2989C17.9151 15.4756 17.3379 15.8137 16.8652 16.2824C16.4788 16.685 16.182 17.1717 15.9959 17.7079C15.5829 18.8662 15.5829 20.1413 15.9959 21.2996C16.182 21.8357 16.4788 22.3224 16.8652 22.725C17.1863 23.0507 17.5617 23.3123 17.9727 23.4969C18.5598 23.7526 19.1884 23.8879 19.8244 23.8953H20.1996C20.6322 23.8913 21.0625 23.8285 21.4797 23.7086Z" fill="white"/>
</svg>
