<svg width="40" height="40" viewBox="0 0 40 40" fill="none" xmlns="http://www.w3.org/2000/svg">
<circle cx="20" cy="20" r="19" fill="#896CFE" stroke="#896CFE" stroke-width="2"/>
<path d="M9.37282 27.5742C9.64975 27.9584 10.0503 28.2433 10.5123 28.3843C11.85 28.7682 13.2213 29.0321 14.6091 29.1728C16.3945 29.3693 18.1903 29.4655 19.9872 29.4608C21.7853 29.4656 23.5821 29.3694 25.3687 29.1728C26.7565 29.0321 28.1279 28.7682 29.4655 28.3843C29.9275 28.2433 30.3282 27.9584 30.6052 27.5742C30.8641 27.2111 31.0018 26.7801 31 26.3391C30.9998 26.0495 30.9394 25.7629 30.8223 25.4963C30.7052 25.2297 30.5338 24.9887 30.3184 24.7874C29.6102 24.0947 29.0973 23.2381 28.8287 22.2994C28.5801 21.4932 28.4546 20.6563 28.4562 19.8151C28.4562 19.455 28.4749 19.1706 28.4935 18.9366C28.5233 18.6234 28.5457 18.3029 28.5457 17.9752C28.5476 17.628 28.5202 17.2812 28.4637 16.9383C28.1389 15.0104 27.1176 13.2562 25.5811 11.9876C24.6264 11.1919 23.5005 10.6114 22.2851 10.2882C22.6249 9.82942 22.8072 9.27907 22.8064 8.71478C22.8064 7.99478 22.5106 7.30428 21.9839 6.79517C21.4573 6.28605 20.743 6 19.9983 6C19.2542 6.00095 18.5408 6.28747 18.015 6.79648C17.4892 7.3055 17.1939 7.9954 17.1939 8.71478C17.1932 9.27907 17.3755 9.82942 17.7153 10.2882C16.4998 10.6114 15.3739 11.1919 14.4192 11.9876C12.8828 13.2562 11.8613 15.0104 11.5365 16.9383C11.48 17.2812 11.4527 17.628 11.4547 17.9752C11.4547 18.3029 11.4771 18.6234 11.5069 18.9366C11.5069 19.1706 11.544 19.4695 11.544 19.8151C11.5498 20.6553 11.4307 21.492 11.1903 22.2994C10.9162 23.2399 10.3967 24.0967 9.68179 24.7874C9.46639 24.9887 9.29514 25.2297 9.17806 25.4963C9.06097 25.7629 9.00059 26.0495 9.00039 26.3391C8.99193 26.7778 9.12184 27.2086 9.37282 27.5742ZM19.0561 9.6185C18.8132 9.37671 18.6793 9.05177 18.6837 8.71478C18.6799 8.37895 18.8138 8.05534 19.0561 7.81466C19.3053 7.58076 19.6399 7.45138 19.9872 7.45461C20.3358 7.45042 20.6718 7.57988 20.9219 7.81466C21.1642 8.05534 21.2981 8.37895 21.2943 8.71478C21.2987 9.05177 21.1648 9.37671 20.9219 9.6185C20.6718 9.85328 20.3358 9.98274 19.9872 9.97855C19.8133 9.98177 19.6405 9.95166 19.4787 9.88986C19.317 9.82805 19.1694 9.73579 19.0448 9.6185L19.0561 9.6185Z" fill="white"/>
<path d="M21.4581 30.0728C21.361 30.0613 21.2625 30.0683 21.1682 30.0935C21.074 30.1187 20.9859 30.1616 20.9087 30.2198C20.8316 30.278 20.7671 30.3503 20.7189 30.4325C20.6707 30.5148 20.6396 30.6055 20.6276 30.6993C20.5977 30.9355 20.4798 31.1531 20.2961 31.3114C20.1096 31.4722 19.8682 31.5607 19.6183 31.5598C19.3714 31.5602 19.133 31.4731 18.948 31.315C18.7634 31.1584 18.6441 30.942 18.6127 30.7065C18.5867 30.5176 18.4844 30.3463 18.3281 30.2302C18.1717 30.1141 17.974 30.0627 17.7785 30.0873C17.6814 30.0993 17.5876 30.1296 17.5026 30.1767C17.4177 30.2237 17.3432 30.2864 17.2833 30.3613C17.2235 30.4362 17.1796 30.5218 17.154 30.6132C17.1284 30.7045 17.1217 30.7999 17.1342 30.8938C17.213 31.4734 17.5067 32.0056 17.9609 32.3915C18.4175 32.7839 19.0074 33.0005 19.6183 33C20.2337 32.9994 20.8275 32.7803 21.2868 32.3843C21.7414 31.9937 22.0329 31.4559 22.1062 30.8721C22.1294 30.6832 22.0742 30.493 21.9527 30.3432C21.8313 30.1935 21.6534 30.0963 21.4581 30.0728Z" fill="white"/>
</svg>
