<svg width="10" height="8" viewBox="0 0 10 8" fill="none" xmlns="http://www.w3.org/2000/svg">
<path d="M9.88457 3.64756C9.19584 2.77517 7.27887 0.578125 5.00607 0.578125C2.73326 0.578125 0.809403 2.77517 0.120673 3.64756C0.0424845 3.74795 0 3.87156 0 3.99881C0 4.12606 0.0424845 4.24967 0.120673 4.35006C0.795628 5.22246 2.72407 7.42179 4.99917 7.42179C7.27428 7.42179 9.20042 5.22246 9.87767 4.35006C9.95574 4.24995 9.99873 4.12693 9.99997 3.99998C10.0012 3.87302 9.96066 3.74919 9.88457 3.64756ZM5.06346 5.77114C4.55706 5.77054 4.0716 5.5691 3.71352 5.21102C3.35545 4.85294 3.15398 4.36746 3.15337 3.86107C3.15337 3.35427 3.35454 2.8682 3.71268 2.50963C4.07083 2.15105 4.55667 1.9493 5.06346 1.94869C5.57065 1.94869 6.05706 2.15018 6.4157 2.50881C6.77434 2.86745 6.97585 3.35387 6.97585 3.86107C6.97555 4.11259 6.92562 4.36158 6.82895 4.59379C6.73228 4.82599 6.59073 5.03684 6.41245 5.21427C6.23417 5.3917 6.02263 5.53221 5.78997 5.62777C5.5573 5.72333 5.30809 5.77205 5.05657 5.77114H5.06346Z" fill="#896CFE"/>
<path d="M5.54784 3.00245C5.43941 3.00245 5.33209 3.02384 5.23195 3.0654C5.1318 3.10696 5.04082 3.16788 4.96426 3.24465C4.8877 3.32143 4.82703 3.41256 4.78574 3.51282C4.74446 3.61308 4.72339 3.7205 4.7237 3.82892C4.7237 4.04751 4.81053 4.25714 4.9651 4.4117C5.11966 4.56627 5.32925 4.6531 5.54784 4.6531C5.65607 4.6531 5.76329 4.63179 5.86328 4.59037C5.96328 4.54895 6.0541 4.48824 6.13064 4.4117C6.20717 4.33517 6.2679 4.24432 6.30932 4.14432C6.35074 4.04433 6.37204 3.93715 6.37204 3.82892C6.37234 3.7205 6.35128 3.61308 6.30999 3.51282C6.26871 3.41256 6.20804 3.32143 6.13148 3.24465C6.05491 3.16788 5.96393 3.10696 5.86379 3.0654C5.76364 3.02384 5.65627 3.00245 5.54784 3.00245Z" fill="#896CFE"/>
</svg>
