<svg width="27" height="28" viewBox="0 0 27 28" fill="none" xmlns="http://www.w3.org/2000/svg">
<path d="M0.0977844 18.5735L2.85615 23.3931C2.95057 23.5569 3.10536 23.6765 3.28689 23.7258C3.46843 23.775 3.66194 23.7499 3.82522 23.656L7.44912 21.5695C8.22647 22.2002 9.09709 22.7043 10.0293 23.0635V27.2823C10.0293 27.4719 10.1037 27.6538 10.2364 27.7883C10.3691 27.9228 10.5493 27.9989 10.7375 28H16.2623C16.3557 28 16.4481 27.9814 16.5343 27.9453C16.6205 27.9092 16.6989 27.8562 16.7647 27.7895C16.8305 27.7228 16.8826 27.6436 16.918 27.5565C16.9533 27.4695 16.9711 27.3763 16.9705 27.2823V23.0635C17.9028 22.7043 18.7734 22.2002 19.5508 21.5695L23.1746 23.656C23.3379 23.7499 23.5314 23.775 23.713 23.7258C23.8945 23.6765 24.0495 23.5569 24.1439 23.3931L26.9063 18.5735C26.9995 18.4089 27.0244 18.214 26.9755 18.0311C26.9266 17.8481 26.808 17.6921 26.6455 17.597L23.0173 15.4856C23.0967 14.9902 23.1384 14.4893 23.1417 13.9875C23.1382 13.487 23.0966 12.9876 23.0173 12.4935L26.6455 10.3822C26.808 10.287 26.9266 10.131 26.9755 9.94806C27.0244 9.76515 26.9995 9.57018 26.9063 9.40567L24.1439 4.58598C24.0495 4.42218 23.8945 4.3026 23.713 4.25335C23.5314 4.20411 23.3379 4.22924 23.1746 4.32314L19.5508 6.43036C18.7725 5.79988 17.9022 5.29462 16.9705 4.93236V0.713544C16.9705 0.524296 16.8961 0.34287 16.7633 0.209051C16.6304 0.0752324 16.4502 0 16.2623 0H10.7375C10.55 0.00109516 10.3706 0.0765897 10.238 0.210172C10.1054 0.343754 10.0304 0.524634 10.0293 0.713544V4.93236C9.0977 5.29462 8.22734 5.79988 7.44912 6.43036L3.82522 4.32314C3.66194 4.22924 3.46843 4.20411 3.28689 4.25335C3.10536 4.3026 2.95057 4.42218 2.85615 4.58598L0.0977844 9.40567C0.050916 9.48674 0.0202532 9.57634 0.00779364 9.66932C-0.00466592 9.76231 0.0013342 9.85685 0.0251851 9.94755C0.049036 10.0382 0.0904043 10.1233 0.146925 10.1979C0.203447 10.2724 0.274047 10.3351 0.354612 10.3822L3.9868 12.4935C3.90414 12.9872 3.86117 13.4868 3.85839 13.9875C3.86099 14.4895 3.90395 14.9905 3.9868 15.4856L0.354612 17.597C0.273637 17.6436 0.202547 17.706 0.145712 17.7805C0.0888774 17.8551 0.0474582 17.9403 0.0235673 18.0312C-0.000323543 18.122 -0.00617333 18.2167 0.00658029 18.3098C0.0193339 18.4029 0.0503619 18.4925 0.0977844 18.5735ZM13.4999 11.0205C13.8848 11.021 14.2658 11.098 14.6211 11.2469C14.9764 11.3958 15.2991 11.6138 15.5707 11.8885C15.8439 12.162 16.061 12.487 16.2096 12.845C16.3581 13.203 16.435 13.5869 16.4363 13.9749C16.432 14.7582 16.1209 15.508 15.5707 16.0614C15.2991 16.3361 14.9764 16.5542 14.6211 16.7031C14.2658 16.852 13.8848 16.9289 13.4999 16.9294C13.1151 16.9289 12.7341 16.852 12.3788 16.7031C12.0235 16.5542 11.7008 16.3361 11.4291 16.0614C10.8789 15.508 10.5679 14.7582 10.5636 13.9749C10.5648 13.5869 10.6418 13.203 10.7903 12.845C10.9388 12.487 11.1559 12.162 11.4291 11.8885C11.9791 11.3368 12.7239 11.0276 13.4999 11.0289V11.0205Z" fill="white"/>
</svg>
