<svg width="10" height="10" viewBox="0 0 10 10" fill="none" xmlns="http://www.w3.org/2000/svg">
<path d="M9.291 3.17889L7.39823 2.70224C7.16422 2.6425 6.96166 2.49596 6.83174 2.29237L5.79324 0.63907C5.7101 0.50338 5.59325 0.391543 5.45403 0.314466C5.3148 0.237388 5.15797 0.197699 4.99884 0.199263C4.8401 0.198097 4.68378 0.237977 4.545 0.315035C4.40621 0.392094 4.28968 0.503716 4.20674 0.63907L3.16594 2.29237C3.03744 2.49631 2.83547 2.64305 2.6018 2.70224L0.709034 3.17889C0.555065 3.21754 0.413416 3.29466 0.297414 3.40303C0.181411 3.5114 0.0948672 3.64746 0.0458428 3.79845C-0.00318169 3.94943 -0.0130981 4.11039 0.0171159 4.26624C0.0473299 4.42208 0.116645 4.5677 0.218541 4.68942L1.46892 6.18845C1.62351 6.37353 1.70099 6.61097 1.68535 6.85161L1.55409 8.79965C1.54559 8.92777 1.56343 9.05626 1.60654 9.17721C1.64964 9.29816 1.71709 9.40898 1.8047 9.50285C1.89231 9.59671 1.99823 9.67163 2.11592 9.72296C2.23361 9.77429 2.36058 9.80095 2.48898 9.8013C2.6088 9.80124 2.72755 9.77858 2.83898 9.73452L4.65114 9.00689C4.76191 8.96332 4.87981 8.94068 4.99884 8.94011C5.11864 8.94045 5.23734 8.96309 5.34885 9.00689L7.16106 9.73452C7.27249 9.77858 7.39123 9.80124 7.51106 9.8013C7.63946 9.80095 7.76637 9.77429 7.88406 9.72296C8.00175 9.67163 8.10767 9.59671 8.19528 9.50285C8.28289 9.40898 8.35034 9.29816 8.39344 9.17721C8.43655 9.05626 8.45439 8.92777 8.44589 8.79965L8.31468 6.85161C8.29905 6.61097 8.37653 6.37353 8.53112 6.18845L9.78144 4.68942C9.88334 4.5677 9.95265 4.42208 9.98287 4.26624C10.0131 4.11039 10.0032 3.94943 9.9542 3.79845C9.90517 3.64746 9.81857 3.5114 9.70257 3.40303C9.58657 3.29466 9.44497 3.21754 9.291 3.17889Z" fill="#896CFE"/>
</svg>
