<svg width="46" height="46" viewBox="0 0 46 46" fill="none" xmlns="http://www.w3.org/2000/svg">
<circle cx="23.0002" cy="23.0004" r="19" transform="rotate(172.765 23.0002 23.0004)" fill="#896CFE" stroke="#896CFE" stroke-width="2"/>
<path d="M22.7952 29.7982C22.8039 29.867 22.8131 29.9393 22.8223 30.0118C22.829 30.3124 22.7835 30.612 22.688 30.8971C25.06 32.1744 27.3644 32.717 29.1002 32.4929C30.0311 32.4097 30.9027 32.0007 31.5612 31.338C31.9822 30.8816 32.2782 30.3244 32.4203 29.7204C32.5862 29.0012 32.6167 28.2575 32.5102 27.5272C32.3189 26.2329 31.9108 24.98 31.303 23.821C29.6776 25.4567 27.8614 26.8916 25.8937 28.095C24.8928 28.7188 23.8584 29.2874 22.7952 29.7982Z" fill="white"/>
<path d="M26.3131 10.7128L26.2115 10.7257C25.9514 10.7585 25.7129 10.8872 25.5428 11.0865C25.3692 11.2855 25.2781 11.5431 25.2881 11.8069C25.2931 11.8467 25.2973 11.8793 25.3014 11.9119C25.3356 12.1713 25.4641 12.409 25.6624 12.5798C25.8635 12.7523 26.1221 12.8429 26.387 12.8336L26.4886 12.8207C26.7487 12.7879 26.9871 12.6592 27.1573 12.4599C27.3317 12.2596 27.4238 12.0009 27.4151 11.7355C27.4114 11.7066 27.4073 11.674 27.4027 11.6378C27.3692 11.3782 27.2406 11.1401 27.0417 10.9698C26.84 10.7952 26.5798 10.7033 26.3131 10.7128Z" fill="white"/>
<path d="M20.2565 29.035L20.155 29.0479C19.895 29.0808 19.6565 29.2095 19.4864 29.4087C19.3128 29.6077 19.2215 29.8654 19.2315 30.1292C19.2365 30.169 19.2407 30.2016 19.2448 30.2342C19.279 30.4936 19.4075 30.7313 19.6058 30.9021C19.8069 31.0746 20.0657 31.1651 20.3306 31.1559L20.432 31.143C20.6921 31.1101 20.9305 30.9815 21.1007 30.7822C21.2823 30.584 21.381 30.324 21.3767 30.0555C21.3748 30.0239 21.3708 29.9924 21.3648 29.9613C21.3306 29.702 21.2021 29.4642 21.0038 29.2934C20.7976 29.1139 20.5297 29.0212 20.2565 29.035Z" fill="white"/>
<path d="M11.4096 26.4239C11.8753 25.4259 12.4733 24.495 13.1871 23.6559L13.2544 23.5774C12.4288 22.1351 11.8793 20.5517 11.6341 18.9082C11.533 18.1552 11.544 17.3913 11.6668 16.6414C10.5049 18.7018 9.93174 21.0412 10.0098 23.4044C10.0526 24.9416 10.3699 26.4588 10.9469 27.8844C11.0399 27.3803 11.1952 26.8897 11.4096 26.4239Z" fill="white"/>
<path d="M32.4053 22.6104C32.3863 22.6349 32.36 22.6604 32.3415 22.6885C33.1655 24.1315 33.7149 25.7146 33.9619 27.3577C34.0911 28.2675 34.05 29.1933 33.8408 30.0882L33.8007 30.2074C35.3154 27.9546 36.0818 25.2828 35.9913 22.5709C35.9334 20.7383 35.4865 18.9391 34.6802 17.2922C34.7377 18.1659 34.5669 19.0395 34.1845 19.8275C33.7212 20.8318 33.1226 21.7681 32.4053 22.6104Z" fill="white"/>
<path d="M21.9946 32.1956C21.9396 32.1629 21.889 32.1236 21.8436 32.0786C21.4888 32.3617 21.0636 32.5428 20.6137 32.6027L20.3744 32.6331C19.7455 32.6529 19.132 32.4368 18.6548 32.0273C18.4715 31.8714 18.3119 31.6897 18.1812 31.4877C17.6408 31.6222 17.0932 31.726 16.5412 31.7989C15.755 31.9103 14.9579 31.9199 14.1693 31.8277C13.872 31.7895 13.5782 31.7272 13.2911 31.6413C14.5557 33.0651 16.1187 34.1931 17.8693 34.945C19.6198 35.697 21.5148 36.0543 23.4194 35.9919C25.8689 35.9172 28.2468 35.1483 30.2757 33.7749C29.9549 33.8675 29.6272 33.9349 29.2959 33.9765C27.1065 34.225 24.5521 33.5707 21.9946 32.1956Z" fill="white"/>
<path d="M18.3957 27.7813L18.7753 28.101C19.1255 27.8376 19.5382 27.6698 19.973 27.6141C20.0528 27.604 20.1324 27.5939 20.2049 27.5846C20.8347 27.5652 21.4492 27.781 21.9281 28.19C22.0268 28.2753 22.1187 28.3682 22.2028 28.4679C23.2004 27.9919 24.1707 27.4609 25.1094 26.8774C26.9053 25.779 28.5704 24.4801 30.0725 23.0059C30.2358 22.8417 30.3996 22.6811 30.5411 22.5196C29.5968 21.0342 28.4664 19.6755 27.1772 18.4765C27.1069 18.4111 27.0501 18.3324 27.0103 18.2451C26.9704 18.1577 26.9483 18.0633 26.945 17.9674C26.9417 17.8714 26.9573 17.7757 26.9911 17.6858C27.0248 17.5959 27.0761 17.5136 27.1417 17.4435C27.2075 17.3734 27.2866 17.3169 27.3742 17.2774C27.4619 17.2378 27.5564 17.2159 27.6525 17.2129C27.7486 17.21 27.8443 17.226 27.9342 17.2601C28.0241 17.2941 28.1065 17.3456 28.1764 17.4115C29.4438 18.5953 30.57 19.9215 31.5326 21.3636C32.0514 20.7165 32.4908 20.0098 32.8416 19.2585C33.1297 18.6912 33.2603 18.0572 33.2199 17.4224C33.1967 17.2047 33.1246 16.9951 33.0093 16.809C32.8914 16.6206 32.7328 16.4609 32.545 16.3417C32.3043 16.1914 32.0416 16.0795 31.7663 16.0102C30.9372 15.8393 30.0834 15.8229 29.2482 15.9619C26.8451 16.267 23.6482 17.4566 20.4794 19.4189C18.6836 20.5186 17.0186 21.8186 15.5167 23.2939C15.3565 23.454 15.1897 23.6187 15.0513 23.7761C15.9919 25.2472 17.1156 26.5931 18.3957 27.7813Z" fill="white"/>
<path d="M20.1477 12.6582C21.6041 13.0729 22.9989 13.6789 24.2954 14.4605C24.3779 14.5096 24.4497 14.5745 24.507 14.6515C24.5644 14.7285 24.606 14.816 24.6295 14.909C24.6529 15.0021 24.6577 15.0988 24.6437 15.1938C24.6297 15.2887 24.5971 15.38 24.5478 15.4623C24.4489 15.6281 24.2883 15.7481 24.1011 15.796C23.914 15.8439 23.7155 15.8158 23.549 15.7179C22.3664 15.002 21.093 14.4472 19.7631 14.0683C18.704 13.7508 17.5934 13.6419 16.4926 13.7477C15.5622 13.8307 14.6908 14.2383 14.0311 14.899C13.6101 15.3567 13.3143 15.915 13.1724 16.5201C13.0062 17.2393 12.9758 17.9831 13.0826 18.7134C13.2721 20.0081 13.6803 21.2613 14.2897 22.4196C15.9152 20.7839 17.7313 19.349 19.699 18.1456C23.0181 16.0907 26.3525 14.8248 29.0524 14.4784C29.8386 14.367 30.6358 14.3573 31.4244 14.4495C32.0876 14.5205 32.7271 14.7356 33.2981 15.0798C32.1627 13.5986 30.7215 12.3788 29.0725 11.503L28.8381 11.4261C28.8477 11.5021 28.8583 11.5854 28.8689 11.6686C28.8886 12.2969 28.672 12.9098 28.2619 13.3866C27.8541 13.8597 27.2854 14.1652 26.6655 14.2442L26.4263 14.2745C25.7974 14.2944 25.1839 14.0783 24.7067 13.6687C24.231 13.2645 23.9238 12.6973 23.8455 12.0783C23.8349 11.995 23.8253 11.9189 23.8156 11.8429C23.7966 11.2148 24.0131 10.6021 24.4226 10.125L24.462 10.0869C23.8389 10.0168 23.2115 9.99069 22.5847 10.0088C19.971 10.0886 17.4426 10.9573 15.3323 12.5005C15.6498 12.4096 15.9741 12.3438 16.3019 12.3039C17.5948 12.1689 18.9015 12.2893 20.1477 12.6582Z" fill="white"/>
<path d="M17.9134 29.2626L17.4583 28.8974L17.4169 28.8621C16.1484 27.6793 15.0222 26.3531 14.0608 24.91C13.5401 25.5557 13.1003 26.2627 12.7516 27.0151C12.4635 27.5824 12.333 28.2164 12.3734 28.8512C12.3977 29.0682 12.4683 29.2776 12.5803 29.4651C12.7008 29.6514 12.8603 29.8095 13.0479 29.9282C13.2872 30.0812 13.5504 30.1933 13.8266 30.2598C14.6552 30.4388 15.5099 30.4625 16.3473 30.3298C16.8253 30.2654 17.2996 30.1758 17.7681 30.0611C17.7711 29.7887 17.8202 29.5187 17.9134 29.2626Z" fill="white"/>
</svg>
