<svg width="40" height="40" viewBox="0 0 40 40" fill="none" xmlns="http://www.w3.org/2000/svg">
<circle cx="20" cy="20" r="19" fill="#896CFE" stroke="#896CFE" stroke-width="2"/>
<path d="M28.8088 10.0089C26.6016 8.08662 23.7776 7.01911 20.8497 7.00025C17.9218 6.9814 15.0843 8.01245 12.8526 9.90611C10.6208 11.7998 9.14289 14.4304 8.68731 17.3202C8.23173 20.21 8.82869 23.1671 10.3698 25.6546C10.4631 25.7979 10.5095 25.9666 10.5029 26.1375C10.4962 26.3083 10.4367 26.4729 10.3326 26.6086C9.43079 27.7534 7.25592 30.7373 8.2585 31.739C8.35337 31.8279 8.46518 31.8967 8.58733 31.9413C8.70948 31.986 8.83949 32.0055 8.96938 31.9987C10.2637 31.9987 12.4121 30.4087 13.3457 29.6349C13.4874 29.5177 13.6657 29.4539 13.8496 29.4547C14.011 29.456 14.1688 29.5018 14.3058 29.5872C16.915 31.209 20.0398 31.7902 23.0583 31.2151C26.0769 30.6401 28.7683 28.9511 30.5973 26.4838C32.4263 24.0166 33.2589 20.9519 32.9295 17.8993C32.6001 14.8468 31.1327 12.0299 28.8194 10.0089H28.8088ZM27.0157 24.4249L26.9575 24.4885C26.0397 25.4214 24.2308 25.5009 23.0638 25.114C22.3656 24.8777 21.6951 24.5668 21.0639 24.1864C17.8015 22.2254 13.908 18.1073 14.9424 13.9521C15.1281 13.2048 15.4728 12.2773 16.3322 12.2243C16.7175 12.221 17.0992 12.2975 17.4535 12.4489C17.8077 12.6003 18.1268 12.8234 18.3905 13.1041C19.0482 13.7613 19.5096 14.7418 19.0747 15.6163C18.5442 16.6763 19.3453 17.9801 20.0614 18.7433C20.6618 19.3517 21.3546 19.8614 22.1142 20.2538C22.8144 20.6407 23.3555 20.8209 24.1194 20.4234C24.8833 20.0259 25.9389 20.646 26.5065 21.2131C27.3022 22.0081 27.8751 23.4709 27.0157 24.4249Z" fill="white"/>
</svg>
